# xmcd
#
# Track frame offsets:
#	150
#	13883
#	27513
#	41405
#	55008
#	68629
#	82570
#	96254
#	110372
#	124274
#	138875
#	152866
#	166983
#	180596
#	194111
#	209108
#	223125
#	236455
#	249357
#	263241
#	277205
#	290501
#
# Disc length: 4048 seconds
#
# Revision: 2
# Processed by: cddbd v1.5PL3 Copyright (c) Steve Scherf et al.
# Submitted via: dBpowerAMP V4.0
#
DISCID=480fce16
DTITLE=Mixed - Svenska Schlagervinnarna 1958-2003
DYEAR=2004
DGENRE=Country
TTITLE0=Fame - Give me Your Love
TTITLE1=Afro-Dite - Ner Let it Go
TTITLE2=Friends - Lyssna Till Ditt Hjärta
TTITLE3=Roger Pontare - När Vindarna Viskar Mitt Namn
TTITLE4=Chalotte Nillsson - Tusen Och en Natt
TTITLE5=Jill Johnsson - Kärleken är
TTITLE6=Blond - Bara Hon älskar Mig
TTITLE7=One More Time - Den Vilda
TTITLE8=Jan Johansen - se på Mig
TTITLE9=Marie Bergam and Roder Pontare Stjärnorna
TTITLE10=Arvingarna - Eloise
TTITLE11=Christer Björkman - Imorgon är en Annaa Dag
TTITLE12=Carola - Fångad av en Stormvind
TTITLE13=Edin-Ådahl - Som en Vind
TTITLE14=Tommy Nilsson - en Dag
TTITLE15=Tommy Körberg - Stad I Ljus
TTITLE16=Lotta Engberg - 4 Bugg Och 1 Coca-Cola
TTITLE17=Monica and Lasse - e Det Här du Kallar Kärlek
TTITLE18=Kikki Danilesson - Bra Vibrationer
TTITLE19=Herreya - Diggi-Loodiggi-Ley
TTITLE20=Carola - Främling
TTITLE21=Chips - Dag Efter Dag
EXTD=
EXTT0=
EXTT1=
EXTT2=
EXTT3=
EXTT4=
EXTT5=
EXTT6=
EXTT7=
EXTT8=
EXTT9=
EXTT10=
EXTT11=
EXTT12=
EXTT13=
EXTT14=
EXTT15=
EXTT16=
EXTT17=
EXTT18=
EXTT19=
EXTT20=
EXTT21=
PLAYORDER=
